<?xml version="1.0" encoding="utf-8"?>
<svg version="1.1" xmlns:xlink="http://www.w3.org/1999/xlink" width="15px" height="16px" xmlns="http://www.w3.org/2000/svg">
  <g transform="matrix(1 0 0 1 -265 -83 )">
    <path d="M 0.5 6.125  C 0.5 3.01839828  3.01839827999999 0.5  6.125 0.5  C 9.2316017 0.5  11.75 3.01839828  11.75 6.125  C 11.75 7.67830086  11.1204004 9.0845509  10.1024756 10.1024756  L 14.767767 14.767767  L 13.8838835 15.6516504  L 9.11966749999999 10.8874437  C 8.25251300000002 11.4338658  7.22567504 11.75  6.125 11.75  C 3.01839827999999 11.75  0.5 9.2316017  0.5 6.125  Z M 10.5 6.125  C 10.5 3.70875422  8.54124580000001 1.75  6.125 1.75  C 3.70875422 1.75  1.75 3.70875422  1.75 6.125  C 1.75 8.5412458  3.70875422 10.5  6.125 10.5  C 8.54124580000001 10.5  10.5 8.5412458  10.5 6.125  Z " fill-rule="nonzero" fill="#000000" stroke="none" fill-opacity="0.156862745098039" transform="matrix(1 0 0 1 265 83 )" />
  </g>
</svg>