<?xml version="1.0" encoding="utf-8"?>
<svg version="1.1" xmlns:xlink="http://www.w3.org/1999/xlink" width="14px" height="14px" xmlns="http://www.w3.org/2000/svg">
  <g transform="matrix(1 0 0 1 -1216 -31 )">
    <path d="M 7.00016594 0.25  L 13.0623436 3.625  L 13.0623436 10.375  L 7.00016594 13.75  L 0.937988279999999 10.375  L 0.937988279999999 3.625  L 7.00016594 0.25  Z M 12.0623436 4.21279955  L 7.00016594 1.39453005999997  L 1.93798828 4.21279955  L 1.93798828 9.78720090000002  L 7.00016594 12.6054697  L 12.0623436 9.78720090000002  L 12.0623436 4.21279955  Z M 10.0001659 7  C 10.0001659 8.65685463  8.65702009 10  7.00016594 10  C 5.34331179 10  4.00016594 8.65685463  4.00016594 7  C 4.00016594 5.34314585000004  5.34331179 4  7.00016594 4  C 8.65702009 4  10.0001659 5.34314585000004  10.0001659 7  Z M 5.00016594 7  C 5.00016594 8.10456943999998  5.8955965 9  7.00016594 9  C 8.10473537 9  9.0001659 8.10456943999998  9.0001659 7  C 9.0001659 5.89543056000002  8.10473537 5  7.00016594 5  C 5.8955965 5  5.00016594 5.89543056000002  5.00016594 7  Z " fill-rule="nonzero" fill="#000000" stroke="none" fill-opacity="0.898039215686275" transform="matrix(1 0 0 1 1216 31 )" />
  </g>
</svg>