<?xml version="1.0" encoding="utf-8"?>
<svg version="1.1" xmlns:xlink="http://www.w3.org/1999/xlink" width="40px" height="40px" xmlns="http://www.w3.org/2000/svg">
  <g transform="matrix(1 0 0 1 -37 -19 )">
    <path d="M 57 19.5  C 67.92 19.5  76.5 28.08  76.5 39  C 76.5 49.92  67.92 58.5  57 58.5  C 46.08 58.5  37.5 49.92  37.5 39  C 37.5 28.08  46.08 19.5  57 19.5  Z " fill-rule="nonzero" fill="#f3f3f3" stroke="none" />
    <path d="M 57 19.5  C 67.92 19.5  76.5 28.08  76.5 39  C 76.5 49.92  67.92 58.5  57 58.5  C 46.08 58.5  37.5 49.92  37.5 39  C 37.5 28.08  46.08 19.5  57 19.5  Z " stroke-width="1" stroke="#000000" fill="none" stroke-opacity="0.0470588235294118" />
  </g>
</svg>