<?xml version="1.0" encoding="utf-8"?>
<svg version="1.1" xmlns:xlink="http://www.w3.org/1999/xlink" width="41px" height="41px" xmlns="http://www.w3.org/2000/svg">
  <defs>
    <filter x="-5px" y="-3px" width="41px" height="41px" filterUnits="userSpaceOnUse" id="filter12">
      <feOffset dx="0" dy="2" in="SourceAlpha" result="shadowOffsetInner" />
      <feGaussianBlur stdDeviation="2.5" in="shadowOffsetInner" result="shadowGaussian" />
      <feComposite in2="shadowGaussian" operator="atop" in="SourceAlpha" result="shadowComposite" />
      <feColorMatrix type="matrix" values="0 0 0 0 0  0 0 0 0 0  0 0 0 0 0  0 0 0 0.0980392156862745 0  " in="shadowComposite" />
    </filter>
    <g id="widget13">
      <path d="M 15.5 0  C 24.18 0  31 6.82  31 15.5  C 31 24.18  24.18 31  15.5 31  C 6.82 31  0 24.18  0 15.5  C 0 6.82  6.82 0  15.5 0  Z " fill-rule="nonzero" fill="#ffffff" stroke="none" />
      <path d="M 15.5 0.5  C 23.9 0.5  30.5 7.1  30.5 15.5  C 30.5 23.9  23.9 30.5  15.5 30.5  C 7.1 30.5  0.5 23.9  0.5 15.5  C 0.5 7.1  7.1 0.5  15.5 0.5  Z " stroke-width="1" stroke="#d7d7d7" fill="none" />
    </g>
  </defs>
  <g transform="matrix(1 0 0 1 5 3 )">
    <use xlink:href="#widget13" filter="url(#filter12)" />
    <use xlink:href="#widget13" />
  </g>
</svg>