<svg t="1669183707983" class="icon" viewBox="0 0 1024 1024" version="1.1" xmlns="http://www.w3.org/2000/svg" p-id="2188" width="20" height="20"><path d="M512 85.333333C277.333333 85.333333 85.333333 277.333333 85.333333 512s192 426.666667 426.666667 426.666667 426.666667-192 426.666667-426.666667S746.666667 85.333333 512 85.333333z m0 768c-187.733333 0-341.333333-153.6-341.333333-341.333333s153.6-341.333333 341.333333-341.333333 341.333333 153.6 341.333333 341.333333-153.6 341.333333-341.333333 341.333333z" fill="#707070" p-id="2189"></path><path d="M507.733333 669.866667c-12.8 0-25.6 4.266667-38.4 12.8-8.533333 8.533333-17.066667 21.333333-17.066666 38.4s4.266667 25.6 12.8 38.4c8.533333 8.533333 21.333333 12.8 38.4 12.8 12.8 0 25.6-4.266667 38.4-12.8 8.533333-8.533333 12.8-21.333333 12.8-38.4 0-12.8-4.266667-25.6-12.8-34.133334-8.533333-12.8-21.333333-17.066667-34.133334-17.066666zM516.266667 251.733333c-34.133333 0-68.266667 8.533333-93.866667 21.333334-25.6 12.8-42.666667 29.866667-55.466667 51.2-17.066667 21.333333-25.6 46.933333-25.6 72.533333 0 12.8 4.266667 21.333333 12.8 29.866667 8.533333 8.533333 21.333333 12.8 29.866667 12.8 21.333333 0 34.133333-12.8 42.666667-38.4 8.533333-25.6 17.066667-42.666667 29.866666-55.466667 12.8-12.8 34.133333-21.333333 55.466667-21.333333s38.4 4.266667 51.2 17.066666c12.8 12.8 21.333333 29.866667 21.333333 46.933334 0 12.8-4.266667 29.866667-17.066666 42.666666l-34.133334 34.133334-38.4 38.4c-21.333333 25.6-34.133333 51.2-34.133333 85.333333 0 29.866667 12.8 46.933333 42.666667 46.933333 21.333333 0 34.133333-12.8 42.666666-34.133333 4.266667-17.066667 8.533333-29.866667 12.8-38.4 4.266667-8.533333 12.8-17.066667 25.6-29.866667 29.866667-25.6 46.933333-42.666667 59.733334-55.466666 25.6-25.6 38.4-55.466667 38.4-89.6 0-25.6-8.533333-46.933333-21.333334-68.266667-29.866667-42.666667-76.8-68.266667-145.066666-68.266667z" fill="#707070" p-id="2190"></path></svg>