<svg t="1677213932961" class="icon" viewBox="0 0 1024 1024" version="1.1" xmlns="http://www.w3.org/2000/svg" p-id="10434" width="200" height="200"><path d="M192 256c-35.345067 0-64-28.654933-64-64 0-35.345067 28.654933-64 64-64 35.345067 0 64 28.654933 64 64 0 35.345067-28.654933 64-64 64z m320 0c-35.345067 0-64-28.654933-64-64 0-35.345067 28.654933-64 64-64 35.345067 0 64 28.654933 64 64 0 35.345067-28.654933 64-64 64z m320 0c-35.345067 0-64-28.654933-64-64 0-35.345067 28.654933-64 64-64 35.345067 0 64 28.654933 64 64 0 35.345067-28.654933 64-64 64zM192 576c-35.345067 0-64-28.654933-64-64 0-35.345067 28.654933-64 64-64 35.345067 0 64 28.654933 64 64 0 35.345067-28.654933 64-64 64z m0 320c-35.345067 0-64-28.654933-64-64 0-35.345067 28.654933-64 64-64 35.345067 0 64 28.654933 64 64 0 35.345067-28.654933 64-64 64z m320 0c-35.345067 0-64-28.654933-64-64 0-35.345067 28.654933-64 64-64 35.345067 0 64 28.654933 64 64 0 35.345067-28.654933 64-64 64z m320 0c-35.345067 0-64-28.654933-64-64 0-35.345067 28.654933-64 64-64 35.345067 0 64 28.654933 64 64 0 35.345067-28.654933 64-64 64z m-320-320c-35.345067 0-64-28.654933-64-64 0-35.345067 28.654933-64 64-64 35.345067 0 64 28.654933 64 64 0 35.345067-28.654933 64-64 64z m320 0c-35.345067 0-64-28.654933-64-64 0-35.345067 28.654933-64 64-64 35.345067 0 64 28.654933 64 64 0 35.345067-28.654933 64-64 64z" fill="#333333" p-id="10435"></path></svg>