<?xml version="1.0" encoding="utf-8"?>
<svg version="1.1" xmlns:xlink="http://www.w3.org/1999/xlink" width="30px" height="30px" xmlns="http://www.w3.org/2000/svg">
  <defs>
    <filter x="422px" y="37px" width="30px" height="30px" filterUnits="userSpaceOnUse" id="filter15">
      <feOffset dx="0" dy="2" in="SourceAlpha" result="shadowOffsetInner" />
      <feGaussianBlur stdDeviation="2.5" in="shadowOffsetInner" result="shadowGaussian" />
      <feComposite in2="shadowGaussian" operator="atop" in="SourceAlpha" result="shadowComposite" />
      <feColorMatrix type="matrix" values="0 0 0 0 0  0 0 0 0 0  0 0 0 0 0  0 0 0 0.2 0  " in="shadowComposite" />
    </filter>
    <g id="widget16">
      <path d="M 437 41  C 442.04 41  446 44.96  446 50  C 446 55.04  442.04 59  437 59  C 431.96 59  428 55.04  428 50  C 428 44.96  431.96 41  437 41  Z " fill-rule="nonzero" fill="#eb0c00" stroke="none" />
      <path d="M 437 41  C 442.04 41  446 44.96  446 50  C 446 55.04  442.04 59  437 59  C 431.96 59  428 55.04  428 50  C 428 44.96  431.96 41  437 41  Z " stroke-width="2" stroke="#ffffff" fill="none" />
    </g>
  </defs>
  <g transform="matrix(1 0 0 1 -422 -37 )">
    <use xlink:href="#widget16" filter="url(#filter15)" />
    <use xlink:href="#widget16" />
  </g>
</svg>