<?xml version="1.0" encoding="utf-8"?>
<svg version="1.1" xmlns:xlink="http://www.w3.org/1999/xlink" width="14px" height="14px" xmlns="http://www.w3.org/2000/svg">
  <defs>
    <filter x="1461px" y="20px" width="14px" height="14px" filterUnits="userSpaceOnUse" id="filter17">
      <feOffset dx="0" dy="2" in="SourceAlpha" result="shadowOffsetInner" />
      <feGaussianBlur stdDeviation="1.5" in="shadowOffsetInner" result="shadowGaussian" />
      <feComposite in2="shadowGaussian" operator="atop" in="SourceAlpha" result="shadowComposite" />
      <feColorMatrix type="matrix" values="0 0 0 0 0  0 0 0 0 0  0 0 0 0 0  0 0 0 0.349019607843137 0  " in="shadowComposite" />
    </filter>
    <g id="widget18">
      <path d="M 1468 21  C 1470.24 21  1472 22.76  1472 25  C 1472 27.24  1470.24 29  1468 29  C 1465.76 29  1464 27.24  1464 25  C 1464 22.76  1465.76 21  1468 21  Z " fill-rule="nonzero" fill="#eb0c00" stroke="none" />
      <path d="M 1468 21.5  C 1469.96 21.5  1471.5 23.04  1471.5 25  C 1471.5 26.96  1469.96 28.5  1468 28.5  C 1466.04 28.5  1464.5 26.96  1464.5 25  C 1464.5 23.04  1466.04 21.5  1468 21.5  Z " stroke-width="1" stroke="#ffffff" fill="none" />
    </g>
  </defs>
  <g transform="matrix(1 0 0 1 -1461 -20 )">
    <use xlink:href="#widget18" filter="url(#filter17)" />
    <use xlink:href="#widget18" />
  </g>
</svg>